<svg id="图层_1" data-name="图层 1" xmlns="http://www.w3.org/2000/svg" viewBox="0 0 490.96 477.73"><defs><style>.cls-1{fill:#fff;}</style></defs><title>b-white-circle0</title><path class="cls-1" d="M248.4,46.37a213,213,0,0,1,82.87,409.09A213,213,0,0,1,165.52,63.1,211.57,211.57,0,0,1,248.4,46.37m0-2c-118.69,0-214.91,96.22-214.91,214.91S129.71,474.19,248.4,474.19,463.3,378,463.3,259.28,367.09,44.37,248.4,44.37Z" transform="translate(-7.75 -14.9)"/><path class="cls-1" d="M249.36,52.33a231.63,231.63,0,0,1,87.27,16.85,224.29,224.29,0,0,1,71.26,45.95,213.42,213.42,0,0,1,48,68.15,206.45,206.45,0,0,1,0,166.9,213.42,213.42,0,0,1-48,68.15,224.29,224.29,0,0,1-71.26,45.95,234.44,234.44,0,0,1-174.54,0,224.29,224.29,0,0,1-71.26-45.95,213.42,213.42,0,0,1-48-68.15,206.44,206.44,0,0,1,0-166.9,213.42,213.42,0,0,1,48-68.15,224.29,224.29,0,0,1,71.26-45.95,231.63,231.63,0,0,1,87.27-16.85m0-.25c-124,0-224.45,96.1-224.45,214.64S125.4,481.37,249.36,481.37s224.45-96.1,224.45-214.64S373.32,52.08,249.36,52.08Z" transform="translate(-7.75 -14.9)"/><path class="cls-1" d="M250.59,36.69a217.57,217.57,0,0,1,153.53,63A214.1,214.1,0,0,1,450.65,168a213.61,213.61,0,0,1,0,167.31,214.1,214.1,0,0,1-46.53,68.31,218.39,218.39,0,0,1-307.07,0,214.1,214.1,0,0,1-46.53-68.31,213.61,213.61,0,0,1,0-167.31A214.1,214.1,0,0,1,97.06,99.64a217.57,217.57,0,0,1,153.53-63m0-.5C130.4,36.19,33,132.63,33,251.61S130.4,467,250.59,467s217.63-96.45,217.63-215.42S370.78,36.19,250.59,36.19Z" transform="translate(-7.75 -14.9)"/><path class="cls-1" d="M260,39.21a221.38,221.38,0,0,1,84.55,16.58,216.93,216.93,0,0,1,69,45.21,210,210,0,0,1,46.53,67,206,206,0,0,1,0,164.14,210,210,0,0,1-46.53,67,216.93,216.93,0,0,1-69,45.21,223.89,223.89,0,0,1-169.11,0,216.93,216.93,0,0,1-69-45.21,210,210,0,0,1-46.53-67,206,206,0,0,1,0-164.14,210,210,0,0,1,46.53-67,216.93,216.93,0,0,1,69-45.21A221.38,221.38,0,0,1,260,39.21m0-2c-121.05,0-219.18,95.32-219.18,212.9S138.9,463,260,463s219.18-95.32,219.18-212.9S381,37.21,260,37.21Z" transform="translate(-7.75 -14.9)"/><circle class="cls-1" cx="66.45" cy="364.97" r="8.5" transform="translate(-121.14 25.61) rotate(-18.68)"/><circle class="cls-1" cx="63.81" cy="396.04" r="4.86" transform="translate(-131.23 26.4) rotate(-18.68)"/><circle class="cls-1" cx="97.96" cy="387.06" r="2.43" transform="translate(-126.55 36.87) rotate(-18.68)"/><circle class="cls-1" cx="295.38" cy="468.17" r="4.25" transform="translate(-142.13 104.37) rotate(-18.68)"/><circle class="cls-1" cx="339.32" cy="458.76" r="5.16" transform="translate(-136.8 117.94) rotate(-18.68)"/><circle class="cls-1" cx="171.22" cy="56.91" r="8.5"/><circle class="cls-1" cx="56.19" cy="147.09" r="4.86" transform="translate(-99.63 78.65) rotate(-49.21)"/><circle class="cls-1" cx="81.04" cy="122.01" r="2.43" transform="translate(-72.02 88.77) rotate(-49.21)"/><circle class="cls-1" cx="111.41" cy="101.83" r="4.25" transform="translate(-46.22 104.77) rotate(-49.21)"/><circle class="cls-1" cx="137.96" cy="66.77" r="5.16" transform="translate(-10.46 112.71) rotate(-49.21)"/><circle class="cls-1" cx="458.72" cy="142.23" r="8.5" transform="translate(178.55 522.86) rotate(-72.67)"/><circle class="cls-1" cx="30.62" cy="256.42" r="4.86" transform="translate(-231.02 194.37) rotate(-72.67)"/><circle class="cls-1" cx="433.5" cy="117.4" r="2.43" transform="translate(184.55 481.35) rotate(-72.67)"/><circle class="cls-1" cx="402.88" cy="103.39" r="4.25" transform="matrix(0.3, -0.95, 0.95, 0.3, 176.42, 442.29)"/><circle class="cls-1" cx="361.81" cy="85.17" r="5.16" transform="translate(164.98 390.29) rotate(-72.67)"/><circle class="cls-1" cx="477.75" cy="260.05" r="8.5"/><circle class="cls-1" cx="434.8" cy="365.15" r="8.5"/><circle class="cls-1" cx="314.24" cy="24.26" r="8.5"/><circle class="cls-1" cx="96.21" cy="76.92" r="8.5"/><circle class="cls-1" cx="373.45" cy="401.67" r="8.5"/><circle class="cls-1" cx="260.71" cy="469.23" r="8.5"/><circle class="cls-1" cx="191.9" cy="429.77" r="8.5"/><circle class="cls-1" cx="97.47" cy="416.46" r="8.5"/><circle class="cls-1" cx="450.97" cy="222.39" r="4.86"/><circle class="cls-1" cx="448.55" cy="257.62" r="2.43"/><circle class="cls-1" cx="443.13" cy="291.62" r="7.29"/><circle class="cls-1" cx="452.49" cy="333.22" r="5.16"/><circle class="cls-1" cx="187.6" cy="443.86" r="5.16"/><circle class="cls-1" cx="108.33" cy="408.39" r="5.16"/><circle class="cls-1" cx="324.18" cy="46.98" r="5.16"/><circle class="cls-1" cx="455.56" cy="190.57" r="5.16"/><circle class="cls-1" cx="326.39" cy="73.9" r="8.5" transform="translate(-9.46 124.9) rotate(-24.11)"/><circle class="cls-1" cx="18.27" cy="256.47" r="8.5" transform="translate(-110.94 14.95) rotate(-24.11)"/><circle class="cls-1" cx="292.47" cy="35.54" r="4.86" transform="translate(3.26 107.69) rotate(-24.11)"/><circle class="cls-1" cx="258.53" cy="48.26" r="4.25" transform="translate(-4.9 94.94) rotate(-24.11)"/><circle class="cls-1" cx="218.55" cy="58.91" r="5.16" transform="translate(-12.75 79.53) rotate(-24.11)"/><circle class="cls-1" cx="57.2" cy="159.62" r="8.5"/><circle class="cls-1" cx="33.72" cy="165.31" r="4.86"/><circle class="cls-1" cx="30.42" cy="200.53" r="2.43"/><circle class="cls-1" cx="38.28" cy="227.25" r="4.25"/><circle class="cls-1" cx="24.31" cy="276.14" r="5.16"/><circle class="cls-1" cx="476.95" cy="202.96" r="3.78"/><circle class="cls-1" cx="452.49" cy="295.05" r="3.43"/><circle class="cls-1" cx="80.28" cy="386" r="3.08"/><circle class="cls-1" cx="312.98" cy="49.35" r="1.17" transform="translate(210.59 336.84) rotate(-81.58)"/><circle class="cls-1" cx="262.08" cy="56.79" r="0.82" transform="translate(159.79 292.84) rotate(-81.58)"/><circle class="cls-1" cx="272.59" cy="42.19" r="0.96" transform="translate(183.2 290.77) rotate(-81.58)"/><circle class="cls-1" cx="102.83" cy="431.75" r="1.39"/><circle class="cls-1" cx="101.4" cy="400.12" r="2.65"/><circle class="cls-1" cx="202.01" cy="457.52" r="1.95"/><circle class="cls-1" cx="293.81" cy="67.01" r="1" transform="translate(176.77 332.94) rotate(-81.58)"/><circle class="cls-1" cx="291.88" cy="53.35" r="0.84" transform="translate(188.63 319.38) rotate(-81.58)"/><circle class="cls-1" cx="310.78" cy="75.83" r="0.82" transform="translate(182.53 357.26) rotate(-81.58)"/><circle class="cls-1" cx="91.24" cy="327.3" r="1.17" transform="translate(-253.64 354.75) rotate(-81.58)"/><circle class="cls-1" cx="40.35" cy="334.74" r="0.82" transform="translate(-304.44 310.76) rotate(-81.58)"/><circle class="cls-1" cx="50.85" cy="320.14" r="0.96" transform="translate(-281.03 308.69) rotate(-81.58)"/><circle class="cls-1" cx="72.07" cy="344.96" r="1" transform="translate(-287.47 350.86) rotate(-81.58)"/><circle class="cls-1" cx="70.14" cy="331.3" r="0.84" transform="translate(-275.61 337.29) rotate(-81.58)"/><circle class="cls-1" cx="89.04" cy="353.78" r="0.82" transform="translate(-281.71 375.18) rotate(-81.58)"/><circle class="cls-1" cx="69.17" cy="154.6" r="1.17" transform="matrix(0.15, -0.99, 0.99, 0.15, -101.64, 185.5)"/><circle class="cls-1" cx="18.27" cy="162.04" r="0.82" transform="translate(-152.44 141.5) rotate(-81.58)"/><circle class="cls-1" cx="28.78" cy="147.44" r="0.96" transform="translate(-129.03 139.44) rotate(-81.58)"/><circle class="cls-1" cx="50" cy="172.26" r="1" transform="translate(-135.47 181.6) rotate(-81.58)"/><circle class="cls-1" cx="48.07" cy="158.6" r="0.84" transform="translate(-123.61 168.04) rotate(-81.58)"/><circle class="cls-1" cx="66.97" cy="181.08" r="0.82" transform="translate(-129.71 205.92) rotate(-81.58)"/><circle class="cls-1" cx="121.24" cy="391.18" r="1.17" transform="translate(-291.22 438.95) rotate(-81.58)"/><circle class="cls-1" cx="442.54" cy="237.29" r="0.82" transform="translate(135.28 625.44) rotate(-81.58)"/><circle class="cls-1" cx="128.73" cy="404.88" r="0.96" transform="translate(-298.37 458.06) rotate(-81.58)"/><circle class="cls-1" cx="151.48" cy="426.83" r="1" transform="translate(-300.67 499.31) rotate(-81.58)"/><circle class="cls-1" cx="58.95" cy="194.1" r="0.84" transform="translate(-149.43 209.11) rotate(-81.58)"/><circle class="cls-1" cx="174.79" cy="442.33" r="0.82" transform="translate(-296.11 535.59) rotate(-81.58)"/><circle class="cls-1" cx="223.67" cy="47.96" r="1.17" transform="translate(23.21 156.33) rotate(-44.71)"/><circle class="cls-1" cx="199.08" cy="93.14" r="0.82" transform="translate(-15.68 152.1) rotate(-44.71)"/><circle class="cls-1" cx="193.71" cy="75.97" r="0.96" transform="translate(-5.16 143.35) rotate(-44.71)"/><circle class="cls-1" cx="222.5" cy="78.49" r="1" transform="translate(1.4 164.33) rotate(-44.71)"/><circle class="cls-1" cx="214.21" cy="67.24" r="0.84" transform="translate(6.92 155.24) rotate(-44.71)"/><circle class="cls-1" cx="243.53" cy="65.61" r="0.82" transform="translate(16.54 175.4) rotate(-44.71)"/><circle class="cls-1" cx="476.56" cy="295.99" r="1.17" transform="translate(-55.07 80.43) rotate(-10.89)"/><circle class="cls-1" cx="452.72" cy="250.42" r="0.82" transform="translate(-46.89 75.11) rotate(-10.89)"/><circle class="cls-1" cx="469.97" cy="255.51" r="0.96" transform="translate(-47.54 78.46) rotate(-10.89)"/><circle class="cls-1" cx="453.56" cy="283.73" r="1" transform="matrix(0.98, -0.19, 0.19, 0.98, -53.17, 75.87)"/><circle class="cls-1" cx="469" cy="282.73" r="0.84" transform="translate(-52.7 78.76) rotate(-10.89)"/><circle class="cls-1" cx="474.69" cy="348.24" r="1.17" transform="translate(-64.97 81.02) rotate(-10.89)"/><circle class="cls-1" cx="451.9" cy="205.46" r="0.96" transform="translate(-38.42 74.14) rotate(-10.89)"/><circle class="cls-1" cx="448.65" cy="322.22" r="1" transform="translate(-60.53 75.63) rotate(-10.89)"/><circle class="cls-1" cx="463.94" cy="329.65" r="0.84" transform="translate(-61.65 78.65) rotate(-10.89)"/><circle class="cls-1" cx="347.87" cy="81.88" r="1.17" transform="translate(-17.25 69.54) rotate(-13.65)"/><circle class="cls-1" cx="497.89" cy="201.19" r="0.82" transform="translate(-41.17 108.32) rotate(-13.65)"/><circle class="cls-1" cx="326.39" cy="17.69" r="0.96" transform="translate(-2.7 62.65) rotate(-13.65)"/><circle class="cls-1" cx="464.98" cy="193.95" r="1" transform="translate(-40.39 100.35) rotate(-13.65)"/><circle class="cls-1" cx="433.57" cy="106" r="0.84" transform="translate(-20.52 90.45) rotate(-13.65)"/><circle class="cls-1" cx="445.86" cy="176.33" r="1.17" transform="translate(-36.77 95.34) rotate(-13.65)"/><circle class="cls-1" cx="419.84" cy="131.96" r="0.82" transform="translate(-27.03 87.94) rotate(-13.65)"/><circle class="cls-1" cx="437.32" cy="136.21" r="0.96" transform="translate(-27.54 92.19) rotate(-13.65)"/><circle class="cls-1" cx="422.29" cy="165.19" r="1" transform="translate(-34.81 89.46) rotate(-13.65)"/><circle class="cls-1" cx="434.22" cy="158.27" r="0.84" transform="translate(-32.84 92.08) rotate(-13.65)"/><circle class="cls-1" cx="131.65" cy="401.67" r="1.17"/><circle class="cls-1" cx="12.53" cy="185.47" r="0.82"/><circle class="cls-1" cx="28.5" cy="193.73" r="0.96"/><circle class="cls-1" cx="421.63" cy="206.74" r="1"/><circle class="cls-1" cx="20.29" cy="214.44" r="0.84"/><circle class="cls-1" cx="15.63" cy="285.68" r="1.17"/><circle class="cls-1" cx="0.82" cy="236.43" r="0.82"/><circle class="cls-1" cx="16.8" cy="244.69" r="0.96"/><circle class="cls-1" cx="11.71" cy="315.59" r="5.5"/><circle class="cls-1" cx="8.59" cy="265.4" r="0.84"/><circle class="cls-1" cx="370.03" cy="456.71" r="1.17" transform="translate(-150.04 153.65) rotate(-21.63)"/><circle class="cls-1" cx="372.78" cy="428.75" r="0.82" transform="translate(-139.54 152.69) rotate(-21.63)"/><circle class="cls-1" cx="370.99" cy="446.65" r="0.96" transform="translate(-146.26 153.3) rotate(-21.63)"/><circle class="cls-1" cx="333.15" cy="441.49" r="1" transform="translate(-147.02 138.99) rotate(-21.63)"/><circle class="cls-1" cx="348.71" cy="446.65" r="0.84" transform="translate(-147.83 145.08) rotate(-21.63)"/><circle class="cls-1" cx="280.77" cy="468.57" r="1.17" transform="translate(-160.69 121.58) rotate(-21.63)"/><circle class="cls-1" cx="450.88" cy="177.62" r="0.82" transform="translate(-41.47 163.8) rotate(-21.63)"/><circle class="cls-1" cx="319.31" cy="454.55" r="0.96" transform="translate(-152.81 134.8) rotate(-21.63)"/><circle class="cls-1" cx="288.52" cy="443.69" r="1" transform="translate(-150.97 122.69) rotate(-21.63)"/><circle class="cls-1" cx="378.83" cy="101.32" r="0.84" transform="translate(-18.42 131.87) rotate(-21.63)"/><circle class="cls-1" cx="131.06" cy="94.28" r="1.17" transform="translate(-7.89 173.48) rotate(-71.38)"/><circle class="cls-1" cx="132.76" cy="42.88" r="0.82" transform="translate(41.98 140.1) rotate(-71.38)"/><circle class="cls-1" cx="145.26" cy="55.81" r="0.96" transform="matrix(0.32, -0.95, 0.95, 0.32, 38.24, 160.74)"/><circle class="cls-1" cx="117.08" cy="72.29" r="1" transform="translate(3.44 145.26) rotate(-71.38)"/><circle class="cls-1" cx="103.69" cy="138.83" r="1.17" transform="translate(-68.73 177.87) rotate(-71.38)"/><circle class="cls-1" cx="105.39" cy="87.43" r="0.82" transform="translate(-18.86 144.49) rotate(-71.38)"/><circle class="cls-1" cx="117.9" cy="100.35" r="0.96" transform="translate(-22.6 165.13) rotate(-71.38)"/><circle class="cls-1" cx="89.72" cy="116.84" r="1" transform="translate(-57.4 149.65) rotate(-71.38)"/><circle class="cls-1" cx="103.5" cy="117.36" r="0.84" transform="translate(-48.51 163.07) rotate(-71.38)"/><circle class="cls-1" cx="406.55" cy="391.15" r="1.17"/><circle class="cls-1" cx="403.49" cy="362.03" r="0.82"/><circle class="cls-1" cx="414.32" cy="361.21" r="0.96"/><circle class="cls-1" cx="403.49" cy="378.33" r="1"/><circle class="cls-1" cx="426.84" cy="383.91" r="0.84"/><circle class="cls-1" cx="389.7" cy="394.23" r="3.08" transform="translate(-163.6 281.05) rotate(-35.12)"/><circle class="cls-1" cx="241.42" cy="16.29" r="1.39" transform="translate(26.83 126.95) rotate(-35.12)"/><circle class="cls-1" cx="147.63" cy="78.84" r="2.79" transform="translate(-26.23 84.38) rotate(-35.12)"/><circle class="cls-1" cx="200.17" cy="32.99" r="1.95" transform="translate(9.71 106.26) rotate(-35.12)"/><circle class="cls-1" cx="84.75" cy="107.17" r="2.65" transform="translate(-53.97 53.37) rotate(-35.12)"/><circle class="cls-1" cx="84.95" cy="136.49" r="2.3" transform="translate(-70.8 58.82) rotate(-35.12)"/><circle class="cls-1" cx="251.21" cy="35.11" r="1.95" transform="translate(17.78 136.01) rotate(-35.12)"/><circle class="cls-1" cx="168.41" cy="55.33" r="2.39" transform="translate(-8.92 92.06) rotate(-35.12)"/><circle class="cls-1" cx="188.68" cy="61.25" r="1.99" transform="translate(-8.64 104.79) rotate(-35.12)"/><circle class="cls-1" cx="306.26" cy="63.24" r="3.08" transform="translate(98.16 288.46) rotate(-61.83)"/><circle class="cls-1" cx="381.22" cy="78.49" r="1.39" transform="translate(124.28 362.59) rotate(-61.83)"/><circle class="cls-1" cx="430.46" cy="149.88" r="2.79" transform="translate(87.34 443.67) rotate(-61.83)"/><circle class="cls-1" cx="414.68" cy="107.83" r="1.95" transform="translate(116.08 407.57) rotate(-61.83)"/><circle class="cls-1" cx="368.77" cy="50.98" r="2.65" transform="translate(141.96 337.09) rotate(-61.83)"/><circle class="cls-1" cx="405.59" cy="81.88" r="2.3" transform="translate(134.16 385.86) rotate(-61.83)"/><circle class="cls-1" cx="393.63" cy="61.29" r="1.95" transform="translate(146 364.45) rotate(-61.83)"/><circle class="cls-1" cx="403.64" cy="125" r="2.39" transform="translate(95.13 406.9) rotate(-61.83)"/><circle class="cls-1" cx="468.61" cy="325.22" r="1.99" transform="translate(-47.08 569.86) rotate(-61.83)"/><circle class="cls-1" cx="381.91" cy="442.5" r="3.08" transform="translate(-185.99 260.59) rotate(-32.6)"/><circle class="cls-1" cx="396.64" cy="425.44" r="1.39" transform="translate(-174.47 265.84) rotate(-32.6)"/><circle class="cls-1" cx="300.19" cy="483.81" r="2.79" transform="translate(-221.12 223.07) rotate(-32.6)"/><circle class="cls-1" cx="354.7" cy="435.64" r="1.95" transform="translate(-186.58 244.85) rotate(-32.6)"/><circle class="cls-1" cx="426.73" cy="428" r="2.65" transform="translate(-171.11 282.46) rotate(-32.6)"/><circle class="cls-1" cx="472.31" cy="171.25" r="2.3" transform="translate(-25.6 266.56) rotate(-32.6)"/><circle class="cls-1" cx="405.59" cy="444.67" r="1.95" transform="translate(-183.42 273.69) rotate(-32.6)"/><circle class="cls-1" cx="321.99" cy="461.23" r="2.39" transform="translate(-205.52 231.26) rotate(-32.6)"/><circle class="cls-1" cx="341.98" cy="468.04" r="1.99" transform="translate(-206.04 243.1) rotate(-32.6)"/><circle class="cls-1" cx="172.61" cy="454.4" r="3.08" transform="translate(-318.05 494.94) rotate(-75.75)"/><circle class="cls-1" cx="150.09" cy="455.32" r="1.39" transform="translate(-335.91 473.81) rotate(-75.75)"/><circle class="cls-1" cx="253.16" cy="447.98" r="2.79" transform="translate(-251.1 568.16) rotate(-75.75)"/><circle class="cls-1" cx="189.63" cy="475.75" r="1.95" transform="translate(-325.91 527.52) rotate(-75.75)"/><circle class="cls-1" cx="131.38" cy="431.61" r="2.65" transform="translate(-327.04 437.8) rotate(-75.75)"/><circle class="cls-1" cx="83.47" cy="368.4" r="2.3" transform="translate(-301.89 343.71) rotate(-75.75)"/><circle class="cls-1" cx="346.7" cy="99.39" r="1.95" transform="translate(157.27 396.06) rotate(-75.75)"/><circle class="cls-1" cx="242.81" cy="484.13" r="2.39" transform="translate(-293.94 585.39) rotate(-75.75)"/><circle class="cls-1" cx="218.55" cy="466.07" r="1.99" transform="translate(-294.72 548.27) rotate(-75.75)"/><circle class="cls-1" cx="38.28" cy="290.53" r="3.08"/><circle class="cls-1" cx="34.93" cy="268.93" r="1.39"/><circle class="cls-1" cx="32.14" cy="381.63" r="2.79"/><circle class="cls-1" cx="24.86" cy="312.28" r="1.95"/><circle class="cls-1" cx="53.3" cy="244.96" r="2.65"/><circle class="cls-1" cx="60.93" cy="316.53" r="2.3"/><circle class="cls-1" cx="55.95" cy="271.75" r="1.95"/><circle class="cls-1" cx="24.86" cy="351.11" r="2.39"/><circle class="cls-1" cx="41.36" cy="337.94" r="1.99"/><circle class="cls-1" cx="71.97" cy="430.65" r="2.43" transform="translate(-177.41 52.09) rotate(-24.11)"/></svg>